#Comment line ignore any data following # character 
#Hierarchical Translation and Rotation (.htr) file 
[Header]	
#Header keywords are followed by a single value 
FileType HTR		#Single word string
DataType HTRS		#Translation followed by rotation and scale data
FileVersion 1		#integer
NumSegments 84		#integer
NumFrames 2		#integer
DataFrameRate 30		#integer, data frame rate in this file
EulerRotationOrder ZYX
CalibrationUnits mm
RotationUnits Degrees
GlobalAxisofGravity Y
BoneLengthAxis Y
ScaleFactor 1.00
[SegmentNames&Hierarchy]
#CHILD	PARENT
MASTER GLOBAL
root MASTER
chest root
L_mid_tent01 root
R_mid_tent01 root
spine01 root
Bip01_Neck chest
L_humerus chest
R_humerus chest
weapon_bone chest
Bip01_Head Bip01_Neck
eye_left_bone Bip01_Head
eye_right_bone Bip01_Head
L_forearm L_humerus
L_front_hand L_forearm
L_weapon_bone L_forearm
L_front_hand01_01 L_front_hand
L_front_hand02_01 L_front_hand
L_front_hand03_01 L_front_hand
L_front_hand01_02 L_front_hand01_01
L_front_hand02_02 L_front_hand02_01
L_front_hand03_02 L_front_hand03_01
R_forearm R_humerus
R_front_hand R_forearm
R_weapon_bone R_forearm
R_front_hand01_01 R_front_hand
R_front_hand02_01 R_front_hand
R_front_hand03_01 R_front_hand
R_front_hand01_02 R_front_hand01_01
R_front_hand02_02 R_front_hand02_01
R_front_hand03_02 R_front_hand03_01
null_rope01_connect L_mid_tent01
Rope1_Seg01 null_rope01_connect
Rope1_Seg02 Rope1_Seg01
Rope1_Seg03 Rope1_Seg02
Rope1_Seg04 Rope1_Seg03
Rope1_Seg05 Rope1_Seg04
Rope1_Seg06 Rope1_Seg05
Rope1_Seg07 Rope1_Seg06
Rope1_Seg09 Rope1_Seg07
L_mid_hand01 Rope1_Seg09
L_mid_hand02 Rope1_Seg09
L_mid_hand03 Rope1_Seg09
null_rope02_connect R_mid_tent01
Rope2_Seg01 null_rope02_connect
Rope2_Seg02 Rope2_Seg01
Rope2_Seg03 Rope2_Seg02
Rope2_Seg04 Rope2_Seg03
Rope2_Seg05 Rope2_Seg04
Rope2_Seg06 Rope2_Seg05
Rope2_Seg07 Rope2_Seg06
Rope2_Seg09 Rope2_Seg07
R_mid_hand01 Rope2_Seg09
R_mid_hand02 Rope2_Seg09
R_mid_hand03 Rope2_Seg09
spine02 spine01
spine03 spine02
pelvis spine03
null_rope03_connect pelvis
null_rope04_connect pelvis
Rope3_Seg01 null_rope03_connect
Rope3_Seg02 Rope3_Seg01
Rope3_Seg03 Rope3_Seg02
Rope3_Seg04 Rope3_Seg03
Rope3_Seg05 Rope3_Seg04
Rope3_Seg06 Rope3_Seg05
Rope3_Seg07 Rope3_Seg06
Rope3_Seg08 Rope3_Seg07
Rope3_Seg09 Rope3_Seg08
R_rear_hand01 Rope3_Seg09
R_rear_hand02 Rope3_Seg09
R_rear_hand03 Rope3_Seg09
Rope4_Seg01 null_rope04_connect
Rope4_Seg02 Rope4_Seg01
Rope4_Seg03 Rope4_Seg02
Rope4_Seg04 Rope4_Seg03
Rope4_Seg05 Rope4_Seg04
Rope4_Seg06 Rope4_Seg05
Rope4_Seg07 Rope4_Seg06
Rope4_Seg08 Rope4_Seg07
Rope4_Seg09 Rope4_Seg08
L_rear_hand01 Rope4_Seg09
L_rear_hand02 Rope4_Seg09
L_rear_hand03 Rope4_Seg09
[BasePosition]
#SegmentName Tx, Ty, Tz, Rx, Ry, Rz, BoneLength
MASTER 0.000000 0.000000 0.000000 -90.000000 0.000000 0.000000 10.000000 
root 0.000000 0.000000 0.000000 0.000000 0.000000 0.000000 10.000000 
chest 0.000000 0.000000 0.000000 0.000000 0.000000 0.000000 10.000000 
L_mid_tent01 0.000000 0.000000 0.000000 0.000000 0.000000 0.000000 10.000000 
R_mid_tent01 0.000000 0.000000 0.000000 0.000000 0.000000 0.000000 10.000000 
spine01 0.000000 0.000000 0.000000 0.000000 0.000000 0.000000 10.000000 
Bip01_Neck 0.000000 0.000000 0.000000 0.000000 0.000000 0.000000 10.000000 
L_humerus 0.000000 0.000000 0.000000 0.000000 0.000000 0.000000 10.000000 
R_humerus 0.000000 0.000000 0.000000 0.000000 0.000000 0.000000 10.000000 
weapon_bone 0.000000 0.000000 0.000000 0.000000 0.000000 0.000000 10.000000 
Bip01_Head 0.000000 0.000000 0.000000 0.000000 0.000000 0.000000 10.000000 
eye_left_bone 0.000000 0.000000 0.000000 0.000000 0.000000 0.000000 10.000000 
eye_right_bone 0.000000 0.000000 0.000000 0.000000 0.000000 0.000000 10.000000 
L_forearm 0.000000 0.000000 0.000000 0.000000 0.000000 0.000000 10.000000 
L_front_hand 0.000000 0.000000 0.000000 0.000000 0.000000 0.000000 10.000000 
L_weapon_bone 0.000000 0.000000 0.000000 0.000000 0.000000 0.000000 10.000000 
L_front_hand01_01 0.000000 0.000000 0.000000 0.000000 0.000000 0.000000 10.000000 
L_front_hand02_01 0.000000 0.000000 0.000000 0.000000 0.000000 0.000000 10.000000 
L_front_hand03_01 0.000000 0.000000 0.000000 0.000000 0.000000 0.000000 10.000000 
L_front_hand01_02 0.000000 0.000000 0.000000 0.000000 0.000000 0.000000 10.000000 
L_front_hand02_02 0.000000 0.000000 0.000000 0.000000 0.000000 0.000000 10.000000 
L_front_hand03_02 0.000000 0.000000 0.000000 0.000000 0.000000 0.000000 10.000000 
R_forearm 0.000000 0.000000 0.000000 0.000000 0.000000 0.000000 10.000000 
R_front_hand 0.000000 0.000000 0.000000 0.000000 0.000000 0.000000 10.000000 
R_weapon_bone 0.000000 0.000000 0.000000 0.000000 0.000000 0.000000 10.000000 
R_front_hand01_01 0.000000 0.000000 0.000000 0.000000 0.000000 0.000000 10.000000 
R_front_hand02_01 0.000000 0.000000 0.000000 0.000000 0.000000 0.000000 10.000000 
R_front_hand03_01 0.000000 0.000000 0.000000 0.000000 0.000000 0.000000 10.000000 
R_front_hand01_02 0.000000 0.000000 0.000000 0.000000 0.000000 0.000000 10.000000 
R_front_hand02_02 0.000000 0.000000 0.000000 0.000000 0.000000 0.000000 10.000000 
R_front_hand03_02 0.000000 0.000000 0.000000 0.000000 0.000000 0.000000 10.000000 
null_rope01_connect 0.000000 0.000000 0.000000 0.000000 0.000000 0.000000 10.000000 
Rope1_Seg01 0.000000 0.000000 0.000000 0.000000 0.000000 0.000000 10.000000 
Rope1_Seg02 0.000000 0.000000 0.000000 0.000000 0.000000 0.000000 10.000000 
Rope1_Seg03 0.000000 0.000000 0.000000 0.000000 0.000000 0.000000 10.000000 
Rope1_Seg04 0.000000 0.000000 0.000000 0.000000 0.000000 0.000000 10.000000 
Rope1_Seg05 0.000000 0.000000 0.000000 0.000000 0.000000 0.000000 10.000000 
Rope1_Seg06 0.000000 0.000000 0.000000 0.000000 0.000000 0.000000 10.000000 
Rope1_Seg07 0.000000 0.000000 0.000000 0.000000 0.000000 0.000000 10.000000 
Rope1_Seg09 0.000000 0.000000 0.000000 0.000000 0.000000 0.000000 10.000000 
L_mid_hand01 0.000000 0.000000 0.000000 0.000000 0.000000 0.000000 10.000000 
L_mid_hand02 0.000000 0.000000 0.000000 0.000000 0.000000 0.000000 10.000000 
L_mid_hand03 0.000000 0.000000 0.000000 0.000000 0.000000 0.000000 10.000000 
null_rope02_connect 0.000000 0.000000 0.000000 0.000000 0.000000 0.000000 10.000000 
Rope2_Seg01 0.000000 0.000000 0.000000 0.000000 0.000000 0.000000 10.000000 
Rope2_Seg02 0.000000 0.000000 0.000000 0.000000 0.000000 0.000000 10.000000 
Rope2_Seg03 0.000000 0.000000 0.000000 0.000000 0.000000 0.000000 10.000000 
Rope2_Seg04 0.000000 0.000000 0.000000 0.000000 0.000000 0.000000 10.000000 
Rope2_Seg05 0.000000 0.000000 0.000000 0.000000 0.000000 0.000000 10.000000 
Rope2_Seg06 0.000000 0.000000 0.000000 0.000000 0.000000 0.000000 10.000000 
Rope2_Seg07 0.000000 0.000000 0.000000 0.000000 0.000000 0.000000 10.000000 
Rope2_Seg09 0.000000 0.000000 0.000000 0.000000 0.000000 0.000000 10.000000 
R_mid_hand01 0.000000 0.000000 0.000000 0.000000 0.000000 0.000000 10.000000 
R_mid_hand02 0.000000 0.000000 0.000000 0.000000 0.000000 0.000000 10.000000 
R_mid_hand03 0.000000 0.000000 0.000000 0.000000 0.000000 0.000000 10.000000 
spine02 0.000000 0.000000 0.000000 0.000000 0.000000 0.000000 10.000000 
spine03 0.000000 0.000000 0.000000 0.000000 0.000000 0.000000 10.000000 
pelvis 0.000000 0.000000 0.000000 0.000000 0.000000 0.000000 10.000000 
null_rope03_connect 0.000000 0.000000 0.000000 0.000000 0.000000 0.000000 10.000000 
null_rope04_connect 0.000000 0.000000 0.000000 0.000000 0.000000 0.000000 10.000000 
Rope3_Seg01 0.000000 0.000000 0.000000 0.000000 0.000000 0.000000 10.000000 
Rope3_Seg02 0.000000 0.000000 0.000000 0.000000 0.000000 0.000000 10.000000 
Rope3_Seg03 0.000000 0.000000 0.000000 0.000000 0.000000 0.000000 10.000000 
Rope3_Seg04 0.000000 0.000000 0.000000 0.000000 0.000000 0.000000 10.000000 
Rope3_Seg05 0.000000 0.000000 0.000000 0.000000 0.000000 0.000000 10.000000 
Rope3_Seg06 0.000000 0.000000 0.000000 0.000000 0.000000 0.000000 10.000000 
Rope3_Seg07 0.000000 0.000000 0.000000 0.000000 0.000000 0.000000 10.000000 
Rope3_Seg08 0.000000 0.000000 0.000000 0.000000 0.000000 0.000000 10.000000 
Rope3_Seg09 0.000000 0.000000 0.000000 0.000000 0.000000 0.000000 10.000000 
R_rear_hand01 0.000000 0.000000 0.000000 0.000000 0.000000 0.000000 10.000000 
R_rear_hand02 0.000000 0.000000 0.000000 0.000000 0.000000 0.000000 10.000000 
R_rear_hand03 0.000000 0.000000 0.000000 0.000000 0.000000 0.000000 10.000000 
Rope4_Seg01 0.000000 0.000000 0.000000 0.000000 0.000000 0.000000 10.000000 
Rope4_Seg02 0.000000 0.000000 0.000000 0.000000 0.000000 0.000000 10.000000 
Rope4_Seg03 0.000000 0.000000 0.000000 0.000000 0.000000 0.000000 10.000000 
Rope4_Seg04 0.000000 0.000000 0.000000 0.000000 0.000000 0.000000 10.000000 
Rope4_Seg05 0.000000 0.000000 0.000000 0.000000 0.000000 0.000000 10.000000 
Rope4_Seg06 0.000000 0.000000 0.000000 0.000000 0.000000 0.000000 10.000000 
Rope4_Seg07 0.000000 0.000000 0.000000 0.000000 0.000000 0.000000 10.000000 
Rope4_Seg08 0.000000 0.000000 0.000000 0.000000 0.000000 0.000000 10.000000 
Rope4_Seg09 0.000000 0.000000 0.000000 0.000000 0.000000 0.000000 10.000000 
L_rear_hand01 0.000000 0.000000 0.000000 0.000000 0.000000 0.000000 10.000000 
L_rear_hand02 0.000000 0.000000 0.000000 0.000000 0.000000 0.000000 10.000000 
L_rear_hand03 0.000000 0.000000 0.000000 0.000000 0.000000 0.000000 10.000000 
#Beginning of Data. Separated by tabs
#Fr	Tx	Ty	Tz	Rx	Ry	Rz	SF
[MASTER]
20 0.000003 -0.000058 -2779.857910 0.001660 0.001660 0.001660 2779.857910
21 0.000003 -0.000055 -3003.685059 0.001660 0.001660 0.001660 3003.684814
[root]
20 -16.502300 -12.674696 1460.125488 -95.854240 -30.729961 -89.458534 1460.273682
21 -16.502300 -11.068293 1459.205444 -90.697891 -27.230711 -91.329933 1459.340698
[chest]
20 -84.512650 -34.090519 0.000000 0.831137 -7.366164 156.518219 91.129311
21 -84.512650 -34.090519 0.000000 2.283886 -5.923976 153.845123 91.129311
[L_mid_tent01]
20 27.299259 22.178610 -249.918579 2.824432 18.090412 79.924347 252.381531
21 27.299255 22.178621 -249.918579 2.507265 9.013438 79.387253 252.381531
[R_mid_tent01]
20 23.228794 24.509907 226.238495 164.264404 -28.404034 80.865654 228.744751
21 23.228794 24.509907 226.238495 165.608963 -15.675179 76.738052 228.744751
[spine01]
20 -0.361383 -0.195265 0.000000 0.002062 0.001122 32.879829 0.410763
21 -0.361383 -0.195265 0.000000 0.002062 0.001122 32.879829 0.410763
[Bip01_Neck]
20 165.484543 71.581718 0.000119 176.643677 -1.657967 43.431911 180.302734
21 165.484543 71.581718 0.000119 176.643677 -1.657967 43.431911 180.302734
[L_humerus]
20 -13.983130 -135.272980 -120.471481 101.540146 72.559044 -128.708557 181.680161
21 -13.983130 -135.272980 -120.471481 124.275772 68.245277 -104.118607 181.680161
[R_humerus]
20 -13.983309 -135.273102 125.287651 -172.192001 -11.149230 -98.257820 184.909012
21 -13.983309 -135.273102 125.287651 -172.993927 -9.514322 -96.510231 184.909012
[weapon_bone]
20 235.964890 -300.705902 0.000000 0.000000 -89.951546 -128.212341 382.234833
21 235.964890 -300.705902 0.000000 0.000000 -89.951546 -128.212341 382.234833
[Bip01_Head]
20 213.416977 185.791626 10.791698 32.181011 0.098415 -43.899757 283.163910
21 213.472610 185.636703 12.792767 32.006977 0.144734 -43.899757 283.187561
[eye_left_bone]
20 -24.626970 125.451866 -64.772606 0.000000 -90.000000 -99.840431 143.318359
21 -24.626970 125.451866 -64.772606 0.000000 -90.000000 -99.840431 143.318359
[eye_right_bone]
20 -24.626970 125.451866 64.327362 0.000000 -89.965736 80.156380 143.117676
21 -24.626970 125.451866 64.327362 0.000000 -89.965736 80.156380 143.117676
[L_forearm]
20 322.776093 0.000000 -0.000119 0.000138 -0.002343 -96.717331 322.776093
21 322.776093 0.000000 -0.000119 0.000132 -0.002344 -96.432449 322.776093
[L_front_hand]
20 241.149185 -0.042021 -3.300071 -178.599518 -1.783012 -29.597061 241.171753
21 241.149185 -0.042021 -3.300071 -178.608551 -1.790455 -29.284931 241.171753
[L_weapon_bone]
20 156.183838 0.000000 0.000000 0.000014 0.000007 0.000001 156.183838
21 156.183838 0.000000 0.000000 0.000014 0.000007 0.000001 156.183838
[L_front_hand01_01]
20 86.095154 20.947098 -0.655860 -0.366594 -0.477154 75.385574 88.609184
21 86.095154 20.947098 -0.655860 -0.366594 -0.477154 75.385574 88.609184
[L_front_hand02_01]
20 86.935165 -11.437475 24.513514 154.399796 -59.883835 -61.369587 91.046425
21 86.935165 -11.437475 24.513514 154.399796 -59.883835 -61.369587 91.046425
[L_front_hand03_01]
20 86.637497 -14.123976 -20.424902 -153.913849 58.118122 -62.702866 90.126129
21 86.637497 -14.123976 -20.424902 -153.913849 58.118122 -62.702866 90.126129
[L_front_hand01_02]
20 71.020905 -0.000179 0.000030 0.000334 -0.002323 -106.379684 71.020905
21 71.020905 -0.000179 0.000030 0.000334 -0.002323 -106.379684 71.020905
[L_front_hand02_02]
20 71.020927 -0.000119 0.000060 0.000334 -0.002323 -106.379684 71.020927
21 71.020927 -0.000119 0.000060 0.000334 -0.002323 -106.379684 71.020927
[L_front_hand03_02]
20 71.020905 -0.000060 0.000060 0.000334 -0.002323 -106.379684 71.020905
21 71.020905 -0.000060 0.000060 0.000334 -0.002323 -106.379684 71.020905
[R_forearm]
20 322.776428 -0.000060 0.000030 0.212765 0.017492 -95.028069 322.776428
21 322.776428 -0.000060 0.000030 0.212804 0.017001 -94.763176 322.776428
[R_front_hand]
20 238.847015 -0.006795 2.210259 -2.156342 -10.752359 -28.883898 238.857239
21 238.847015 -0.006795 2.210259 -2.223725 -10.738289 -28.513382 238.857239
[R_weapon_bone]
20 155.664093 0.002503 -0.000030 0.003487 0.001180 -90.988930 155.664078
21 155.664093 0.002503 -0.000030 0.003487 0.001180 -90.988930 155.664078
[R_front_hand01_01]
20 87.624611 14.231146 22.918642 -154.633514 -59.950634 61.746063 91.683487
21 87.624611 14.231146 22.918642 -154.633499 -59.950619 61.746044 91.683487
[R_front_hand02_01]
20 89.356956 14.367283 -19.491137 154.602676 58.302864 63.744389 92.579636
21 89.356956 14.367283 -19.491137 154.602661 58.302849 63.744389 92.579636
[R_front_hand03_01]
20 87.286232 -22.307278 -0.143439 0.162155 -0.423168 -75.767921 90.091743
21 87.286232 -22.307278 -0.143439 0.162155 -0.423168 -75.767921 90.091743
[R_front_hand01_02]
20 71.020905 0.000060 0.000119 0.002323 -0.000334 106.381714 71.020905
21 71.020905 0.000060 0.000119 0.002323 -0.000334 106.381714 71.020905
[R_front_hand02_02]
20 71.020844 -0.000030 -0.000119 0.002323 -0.000334 106.381714 71.020836
21 71.020844 -0.000030 -0.000119 0.002323 -0.000334 106.381714 71.020836
[R_front_hand03_02]
20 71.020905 0.000000 0.000030 0.002323 -0.000334 106.381714 71.020905
21 71.020905 0.000000 0.000030 0.002323 -0.000334 106.381714 71.020905
[null_rope01_connect]
20 328.732483 0.000000 -0.000238 -135.458755 -66.476295 177.099792 328.732483
21 328.732483 0.000000 -0.000238 -124.078117 -78.939438 162.078049 328.732483
[Rope1_Seg01]
20 0.000033 -0.000049 0.000132 -4.920966 17.366629 -174.405914 0.000144
21 0.000035 -0.000049 0.000139 -5.680240 22.943920 -178.714859 0.000151
[Rope1_Seg02]
20 139.999863 -0.000179 0.000000 0.063294 12.418976 -8.496302 139.999863
21 139.999863 -0.000179 0.000000 0.279292 10.351970 -5.382948 139.999863
[Rope1_Seg03]
20 139.999924 0.000060 -0.000060 -3.079043 22.364513 -12.307333 139.999924
21 139.999924 0.000060 -0.000060 -2.061014 18.358303 -8.922634 139.999924
[Rope1_Seg04]
20 139.999924 -0.000060 -0.000119 -5.523922 19.914566 -17.956730 139.999924
21 139.999924 -0.000060 -0.000119 -9.594851 26.098913 -10.353205 139.999924
[Rope1_Seg05]
20 139.999832 0.000119 -0.000060 12.985320 3.128014 -18.151520 139.999832
21 139.999832 0.000119 -0.000060 1.534280 11.752911 -17.174992 139.999832
[Rope1_Seg06]
20 139.999954 0.000119 -0.000060 9.260719 0.881122 -8.325319 139.999954
21 139.999954 0.000119 -0.000060 16.345961 4.753979 -14.395587 139.999954
[Rope1_Seg07]
20 139.999985 0.000060 0.000000 7.176907 -0.075252 -4.702119 139.999985
21 139.999985 0.000060 0.000000 18.371546 1.787597 -8.049060 139.999985
[Rope1_Seg09]
20 121.602913 0.000119 -0.000089 -89.793175 -1.359789 0.847147 121.602913
21 121.602913 0.000119 -0.000089 -89.793175 -1.359789 0.847147 121.602913
[L_mid_hand01]
20 103.859421 1.038730 8.195221 130.544373 -67.584534 -38.866943 104.187431
21 103.859421 1.038730 8.195221 130.544373 -67.584534 -38.866943 104.187431
[L_mid_hand02]
20 105.572853 -4.139662 -10.864139 -168.923172 43.409309 -73.498886 106.211075
21 105.572853 -4.139662 -10.864139 -168.923172 43.409309 -73.498886 106.211075
[L_mid_hand03]
20 104.641464 17.579376 -3.913581 -6.012627 17.808174 74.893669 106.179977
21 104.641464 17.579376 -3.913581 -6.012627 17.808174 74.893669 106.179977
[null_rope02_connect]
20 328.732849 0.000179 -0.000119 -102.329552 61.591732 34.898247 328.732849
21 328.732849 0.000179 -0.000119 -94.736038 70.540977 42.870441 328.732849
[Rope2_Seg01]
20 0.000006 0.000105 0.000000 63.198463 34.471939 -6.041860 0.000105
21 0.000010 0.000105 0.000000 74.141052 25.677462 3.613739 0.000106
[Rope2_Seg02]
20 139.999741 -0.000060 -0.000119 -2.834661 5.626192 -9.271047 139.999756
21 139.999741 -0.000060 -0.000119 -3.147988 3.518605 -9.108173 139.999756
[Rope2_Seg03]
20 140.000107 0.000030 0.000000 -2.649317 9.828595 -13.898118 140.000107
21 140.000107 0.000030 0.000000 -3.341186 6.793120 -14.743349 140.000107
[Rope2_Seg04]
20 139.999802 0.000000 -0.000060 -0.929866 14.419284 -15.501820 139.999802
21 139.999802 0.000000 -0.000060 -1.694165 13.516271 -20.497353 139.999802
[Rope2_Seg05]
20 139.999985 -0.000060 0.000119 7.676849 5.444624 -23.180826 139.999985
21 139.999985 -0.000060 0.000119 6.006075 2.566538 -21.269108 139.999985
[Rope2_Seg06]
20 139.999893 -0.000030 -0.000119 20.484379 -2.592442 -30.191940 139.999893
21 139.999893 -0.000030 -0.000119 14.044638 -7.966428 -25.881617 139.999893
[Rope2_Seg07]
20 139.999893 0.000060 -0.000060 12.421205 -5.538934 -15.611227 139.999893
21 139.999893 0.000060 -0.000060 8.844955 -6.686465 -16.608364 139.999893
[Rope2_Seg09]
20 121.338966 0.000089 -0.000060 33.793236 -1.359788 -0.847141 121.338966
21 121.338966 0.000089 -0.000060 33.793236 -1.359788 -0.847141 121.338966
[R_mid_hand01]
20 104.680779 11.144459 -10.335981 -16.212063 45.237247 70.462852 105.778534
21 104.680779 11.144459 -10.335981 -16.212063 45.237247 70.462852 105.778534
[R_mid_hand02]
20 104.070427 2.443552 8.231699 49.067368 -67.749771 39.286453 104.424065
21 104.070427 2.443552 8.231699 49.067368 -67.749771 39.286453 104.424065
[R_mid_hand03]
20 106.028137 -11.221827 -5.996406 -177.101105 15.551026 -76.585571 106.788818
21 106.028137 -11.221827 -5.996406 -177.101105 15.551026 -76.585571 106.788818
[spine02]
20 129.756927 0.001550 0.000119 -1.183116 -3.998851 9.034560 129.756927
21 129.756927 0.001550 0.000119 -1.175921 -3.985292 8.932365 129.756927
[spine03]
20 78.613976 0.083304 -4.898973 0.934517 4.382927 2.814351 78.766510
21 78.613983 0.083244 -4.898975 0.939331 4.352673 2.873670 78.766525
[pelvis]
20 169.435242 0.051022 0.000000 0.029039 -0.104446 -13.571362 169.435257
21 169.435242 0.051022 0.000000 0.030089 -0.114298 -13.451840 169.435257
[null_rope03_connect]
20 -1.257226 -2.466202 137.391083 -154.220612 -83.852859 -116.082794 137.418976
21 -1.257226 -2.466202 137.391083 -121.675163 -87.863747 -152.243576 137.418976
[null_rope04_connect]
20 -1.259640 -2.480268 -137.844437 -154.220612 -83.852859 -116.082794 137.872513
21 -1.259640 -2.480268 -137.844437 -121.675163 -87.863747 -152.243576 137.872513
[Rope3_Seg01]
20 -0.000012 0.000016 0.000045 -1.139702 -24.113350 -38.050877 0.000050
21 -0.000013 0.000017 0.000055 1.178240 -23.749622 -41.438911 0.000060
[Rope3_Seg02]
20 139.999924 -0.000119 0.000060 -2.183806 -6.422342 -0.514915 139.999924
21 139.999924 -0.000119 0.000060 -2.335629 -7.211063 -0.029574 139.999924
[Rope3_Seg03]
20 139.999924 -0.000119 0.000119 -1.770783 -6.862719 -0.932745 139.999924
21 139.999924 -0.000119 0.000119 -1.916761 -8.317370 -0.692142 139.999924
[Rope3_Seg04]
20 139.999924 0.000119 0.000000 -0.324723 -4.552763 -3.747818 139.999924
21 139.999924 0.000119 0.000000 -0.340010 -7.199924 -4.814934 139.999924
[Rope3_Seg05]
20 139.999924 -0.000238 0.000060 -1.417229 -9.628478 0.935096 139.999924
21 139.999924 -0.000238 0.000060 -1.677689 -13.902140 4.936325 139.999924
[Rope3_Seg06]
20 139.999893 -0.000119 -0.000060 -1.959367 -13.640808 6.296582 139.999893
21 139.999893 -0.000119 -0.000060 -1.467070 -12.174788 9.260423 139.999893
[Rope3_Seg07]
20 139.999771 0.000060 -0.000119 -0.402180 -8.861706 3.545442 139.999771
21 139.999771 0.000060 -0.000119 -0.117105 -6.148126 3.594374 139.999771
[Rope3_Seg08]
20 139.999985 -0.000060 0.000000 0.276401 -4.915475 1.672944 139.999985
21 139.999985 -0.000060 0.000000 0.271694 -3.431158 1.888659 139.999985
[Rope3_Seg09]
20 90.185997 -0.000179 -0.000060 89.793228 -1.359877 -0.847183 90.185997
21 90.185997 -0.000179 -0.000060 89.793228 -1.359877 -0.847183 90.185997
[R_rear_hand01]
20 103.366196 -6.073594 -10.757982 -177.714203 24.565960 -73.910950 104.101845
21 103.366196 -6.073594 -10.757982 -177.714203 24.565960 -73.910950 104.101845
[R_rear_hand02]
20 100.509819 12.039542 -7.992327 -12.874829 36.868488 72.167213 101.543350
21 100.509819 12.039542 -7.992327 -12.874829 36.868488 72.167213 101.543350
[R_rear_hand03]
20 101.539970 5.215704 5.435467 71.484581 -71.816628 21.513813 101.819031
21 101.539970 5.215704 5.435467 71.484581 -71.816628 21.513813 101.819031
[Rope4_Seg01]
20 0.000000 0.000000 0.000000 -93.545059 -31.352354 -116.799217 0.000000
21 0.000000 0.000000 0.000000 -93.029396 -25.437296 -118.807602 0.000000
[Rope4_Seg02]
20 139.999985 0.000060 0.000119 0.564607 11.785386 6.556873 139.999985
21 139.999985 0.000060 0.000119 0.775869 13.079301 6.052203 139.999985
[Rope4_Seg03]
20 139.999924 0.000000 -0.000238 1.870818 18.898319 8.226993 139.999924
21 139.999924 0.000000 -0.000238 2.945502 18.643250 5.701098 139.999924
[Rope4_Seg04]
20 139.999985 0.000000 0.000119 7.778012 20.959614 4.437117 139.999985
21 139.999985 0.000000 0.000119 9.050355 18.124319 1.628969 139.999985
[Rope4_Seg05]
20 139.999802 -0.000060 -0.000119 -73.053276 19.336617 27.374235 139.999802
21 139.999802 -0.000060 -0.000119 -69.963043 21.147999 24.452297 139.999802
[Rope4_Seg06]
20 139.999924 0.000000 0.000060 -44.861610 -20.082167 18.395847 139.999924
21 139.999924 0.000000 0.000060 -57.282570 -16.976709 22.205606 139.999924
[Rope4_Seg07]
20 139.999802 0.000000 0.000000 -5.269701 -9.383986 1.020646 139.999802
21 139.999802 0.000000 0.000000 -5.486294 -9.875803 0.580390 139.999802
[Rope4_Seg08]
20 139.999924 0.000000 0.000119 -3.283624 -4.608585 0.079357 139.999924
21 139.999924 0.000000 0.000119 -3.283152 -4.838761 -0.176521 139.999924
[Rope4_Seg09]
20 90.185791 0.000060 0.000060 -135.617828 2.228885 0.850567 90.185791
21 90.185791 0.000060 0.000060 -135.617828 2.228885 0.850567 90.185791
[L_rear_hand01]
20 101.696655 -8.392275 -7.654577 -12.874829 -36.868488 107.832764 102.329041
21 101.696655 -8.392275 -7.654577 -12.874829 -36.868488 107.832764 102.329041
[L_rear_hand02]
20 102.726799 -1.568258 5.773216 71.484581 71.816628 158.486160 102.900848
21 102.726799 -1.568258 5.773216 71.484581 71.816628 158.486160 102.900848
[L_rear_hand03]
20 104.552910 9.721220 -10.420293 -177.714203 -24.565960 -106.089035 105.519653
21 104.552910 9.721220 -10.420293 -177.714203 -24.565960 -106.089035 105.519653
